<svg width="235" height="32" viewBox="0 0 235 32" fill="none" xmlns="http://www.w3.org/2000/svg">
<path d="M10.5814 12.7595V11.498C10.1702 11.4414 9.75106 11.406 9.32487 11.406C4.18261 11.406 0 15.6222 0 20.8046C0 23.9846 1.57637 26.7988 3.98105 28.5C3.93692 28.4524 3.8938 28.4049 3.85169 28.3564C2.3796 26.6936 1.53325 24.5012 1.53325 22.1005C1.53325 16.9928 5.54138 12.8778 10.5814 12.7595Z" fill="#25F4EE"/>
<path d="M10.8014 26.4284C13.0958 26.4284 15.0041 24.5543 15.0893 22.2618L15.0994 1.8352L18.7776 1.84126L18.7685 1.79578C18.6913 1.37528 18.6492 0.942646 18.6492 0.499908H13.5831L13.5751 20.9649C13.4899 23.2564 11.6187 25.0961 9.32533 25.0961C8.61236 25.0961 7.9415 24.9162 7.34985 24.6028C8.123 25.6854 9.38049 26.4284 10.8014 26.4284Z" fill="#25F4EE"/>
<path d="M25.6973 8.82471V7.60566C24.2823 7.60566 22.9647 7.18213 21.8596 6.45535C22.8433 7.59454 24.1801 8.4972 25.6973 8.82471Z" fill="#25F4EE"/>
<path d="M21.8583 6.45426C20.7803 5.2059 20.1255 3.57748 20.1255 1.79642H18.7327C19.0897 3.74224 20.2709 5.4111 21.8583 6.45426Z" fill="#FE2C55"/>
<path d="M9.32451 16.4731C6.97599 16.4731 5.02759 18.4381 5.02759 20.8044C5.02759 22.4531 5.99427 23.8844 7.34903 24.6041C6.84363 23.8985 6.54279 23.0353 6.54279 22.1003C6.54279 19.733 8.45309 17.8074 10.8016 17.8074C11.2398 17.8074 11.66 17.8801 12.0581 18.0055V12.7927C11.647 12.7361 11.2278 12.7007 10.8016 12.7007C10.7274 12.7007 10.6552 12.7048 10.581 12.7068L10.5459 12.7118L10.5419 16.649C10.1448 16.5236 9.76373 16.4731 9.32451 16.4731Z" fill="#FE2C55"/>
<path d="M25.6965 8.7434L25.6694 8.73834L25.6574 12.6684C23.0301 12.6684 20.6064 11.8062 18.6189 10.3688L18.6129 20.8045C18.6129 25.9869 14.4643 30.1656 9.32308 30.1656C7.33656 30.1656 5.49345 29.5723 3.97925 28.5008C5.68298 30.3446 8.10871 31.4999 10.7992 31.4999C15.9404 31.4999 20.123 27.2838 20.123 22.1013V11.7233C22.1096 13.1607 24.5443 14.0077 27.1706 14.0077V8.90108C26.6672 8.90108 26.1738 8.8465 25.6965 8.7434Z" fill="#FE2C55"/>
<path d="M18.6463 20.8042V10.4271C20.6328 11.8645 23.0675 12.7116 25.6938 12.7116V8.74309C24.1766 8.41558 22.8399 7.5948 21.8562 6.4546C20.2688 5.41143 19.1236 3.74258 18.7656 1.79675H15.0563L15.0483 22.2617C14.963 24.5533 13.0918 26.393 10.7985 26.393C9.37754 26.393 8.12005 25.6854 7.3469 24.6038C5.99114 23.8851 5.06357 22.4528 5.06357 20.8042C5.06357 18.4368 6.97387 16.5112 9.32238 16.5112C9.7606 16.5112 10.1808 16.584 10.5789 16.7093V12.7055C5.53889 12.8238 1.47461 16.9903 1.47461 22.099C1.47461 24.5694 2.42625 26.8195 3.97856 28.4985C5.49276 29.57 7.33487 30.2017 9.32238 30.2017C14.4636 30.2037 18.6463 25.9876 18.6463 20.8042Z" fill="white"/>
<path d="M30.6934 3.53082H38.9521L38.1939 5.8657L36.0509 5.86472V14.4992H33.3811V5.86472L30.6944 5.86965L30.6934 3.53082Z" fill="white"/>
<path d="M52.4802 3.53082H60.9305L60.1723 5.8657L57.8427 5.86472V14.4992H55.169V5.86472L52.4822 5.86965L52.4802 3.53082Z" fill="white"/>
<path d="M39.4553 7.01904H42.1032L42.1002 14.4989H39.4713L39.4553 7.01904Z" fill="white"/>
<path d="M43.1541 3.50043H45.7989V8.60896L48.4198 6.06702H51.5774L48.2612 9.24692L51.9755 14.5004H49.0613L46.5831 10.8571L45.7989 11.6104V14.5004H43.1541V3.50043Z" fill="white"/>
<path d="M71.1787 3.50043H73.8236V8.60896L76.4445 6.06702H79.6021L76.2858 9.24692L80.0002 14.5004H77.086L74.6077 10.8571L73.8236 11.6104V14.5004H71.1787V3.50043Z" fill="white"/>
<path d="M40.7794 6.16475C41.5156 6.16475 42.1123 5.57497 42.1123 4.84744C42.1123 4.1199 41.5156 3.53012 40.7794 3.53012C40.0433 3.53012 39.4465 4.1199 39.4465 4.84744C39.4465 5.57497 40.0433 6.16475 40.7794 6.16475Z" fill="white"/>
<path d="M60.5914 10.0218C60.5914 7.66723 62.4311 5.73859 64.7666 5.55913C64.6489 5.55026 64.4893 5.54434 64.3696 5.54434C61.8674 5.54434 59.8391 7.54891 59.8391 10.0218C59.8391 12.4948 61.8674 14.4993 64.3696 14.4993C64.4893 14.4993 64.6489 14.4934 64.7666 14.4845C62.4311 14.3051 60.5914 12.3764 60.5914 10.0218Z" fill="#25F4EE"/>
<path d="M65.7983 5.54434C65.6775 5.54434 65.5169 5.55026 65.3982 5.55913C67.7328 5.73957 69.5705 7.66822 69.5705 10.0218C69.5705 12.3754 67.7328 14.3031 65.3982 14.4845C65.5159 14.4934 65.6775 14.4993 65.7983 14.4993C68.3004 14.4993 70.3287 12.4948 70.3287 10.0218C70.3277 7.54891 68.2994 5.54434 65.7983 5.54434Z" fill="#FE2C55"/>
<path d="M65.0808 5.54434C62.5786 5.54434 60.5503 7.54891 60.5503 10.0218C60.5503 12.4948 62.5786 14.4993 65.0808 14.4993C67.5829 14.4993 69.6112 12.4948 69.6112 10.0218C69.6112 7.54891 67.5829 5.54434 65.0808 5.54434ZM65.0808 12.1989C63.8646 12.1989 62.8779 11.2248 62.8779 10.0218C62.8779 8.81988 63.8636 7.84471 65.0808 7.84471C66.2969 7.84471 67.2836 8.81889 67.2836 10.0218C67.2826 11.2238 66.2969 12.1989 65.0808 12.1989Z" fill="white"/>
<path d="M32.2032 24.7602C32.2192 25.2508 32.4464 25.7101 32.9018 26.1051C33.3562 26.501 33.9248 26.6902 34.6074 26.6902C35.9556 26.6902 36.7182 25.9939 36.8644 25.0918C36.9454 24.0161 36.1337 23.3988 34.9647 23.1452L33.5194 22.7971C31.7008 22.3378 30.791 21.3888 30.791 19.9484C30.791 19.0463 31.1483 18.3188 31.8629 17.7493C32.5775 17.1641 33.4223 16.8794 34.4132 16.8794C35.4521 16.8794 36.3129 17.1797 36.9955 17.7659C37.6771 18.351 38.0184 19.1107 38.0184 20.0762H36.5081C36.5081 19.0005 35.6313 18.2886 34.3972 18.2886C33.8287 18.2886 33.3412 18.4466 32.9189 18.7479C32.5125 19.0483 32.3013 19.4442 32.3013 19.9348C32.3013 20.6945 32.8368 21.2006 33.8927 21.4542L35.354 21.8023C37.4819 22.3251 38.5539 23.5119 38.3427 25.2205C38.2456 26.0436 37.8553 26.7244 37.1897 27.2617C36.5241 27.8 35.6633 28.0692 34.6074 28.0692C33.4864 28.0692 32.5605 27.7366 31.8139 27.0881C31.0672 26.423 30.6929 25.6477 30.6929 24.7622H32.2032V24.7602Z" fill="white"/>
<path d="M41.1531 27.9093H39.6758V16.5H41.1541V21.6268C41.3653 21.2153 41.7066 20.8993 42.193 20.6935C42.6965 20.4721 43.1839 20.361 43.6543 20.361C45.554 20.361 46.7401 21.5634 46.7241 23.6368V27.9093H45.2457V23.7314C45.2457 22.5289 44.5151 21.7692 43.4592 21.7692C42.8586 21.7692 42.3221 21.9438 41.8517 22.3075C41.3803 22.6557 41.1531 23.194 41.1531 23.9215V27.9093Z" fill="white"/>
<path d="M48.9564 21.421C49.72 20.7091 50.6619 20.3609 51.7819 20.3609C52.9029 20.3609 53.8447 20.7091 54.6074 21.421C55.3711 22.1329 55.7604 23.0506 55.7604 24.1907C55.7604 25.3298 55.3711 26.264 54.5914 26.9916C53.8277 27.7035 52.8859 28.0672 51.7819 28.0672C50.6779 28.0672 49.735 27.7035 48.9724 26.9916C48.2097 26.2796 47.8193 25.3454 47.8193 24.1907C47.8193 23.0516 48.1927 22.1329 48.9564 21.421ZM53.5525 22.4343C53.081 21.9915 52.4805 21.7692 51.7819 21.7692C51.0832 21.7692 50.4827 21.9905 49.9953 22.4343C49.5239 22.877 49.2806 23.4632 49.2806 24.1907C49.2806 24.9348 49.5239 25.5355 49.9953 25.9949C50.4827 26.4542 51.0832 26.6756 51.7819 26.6756C52.4805 26.6756 53.081 26.4542 53.5525 25.9949C54.0399 25.5355 54.2831 24.9348 54.2831 24.1907C54.2831 23.4622 54.0399 22.877 53.5525 22.4343Z" fill="white"/>
<path d="M58.4612 20.5188V21.6735C58.9647 20.8504 60.0206 20.3598 61.1086 20.3598C62.1645 20.3598 63.0733 20.7236 63.804 21.4355C64.5346 22.1474 64.908 23.0817 64.908 24.2364C64.908 25.3755 64.5346 26.2932 63.804 27.0061C63.0733 27.718 62.1795 28.0661 61.1086 28.0661C60.0046 28.0661 58.9327 27.6234 58.4612 26.8003V31.4999H56.9829V20.5188H58.4612ZM59.2239 26.0259C59.7274 26.4531 60.2959 26.6589 60.9615 26.6589C62.3747 26.6589 63.4136 25.6934 63.4136 24.2539C63.4136 23.5264 63.1704 22.9247 62.699 22.4654C62.2276 22.006 61.6601 21.769 60.9615 21.769C60.2628 21.769 59.6783 21.9904 59.1909 22.4498C58.7195 22.8925 58.4762 23.4942 58.4762 24.2539C58.4772 24.9971 58.7215 25.5988 59.2239 26.0259Z" fill="white"/>
<path d="M96 24L96 8" stroke="white" stroke-opacity="0.6"/>
<path d="M118.5 23.34C121.82 23.34 123.86 21.62 123.86 18.94C123.86 16.94 122.6 15.62 120.52 15.06L118.18 14.44C116.78 14.06 116.08 13.52 116.08 12.38C116.08 11.16 117.04 10.4 118.66 10.4C120.2 10.4 121.18 11 121.74 12.38L123.84 11.48C123.12 9.62 121.22 8.56 118.72 8.56C115.6 8.56 113.6 10.2 113.6 12.68C113.6 14.64 114.86 15.86 117.12 16.42L119.34 17C120.66 17.32 121.38 17.92 121.38 19.16C121.38 20.62 120.4 21.48 118.6 21.48C116.82 21.48 115.6 20.56 115.08 18.8L112.84 19.62C113.56 22.06 115.62 23.34 118.5 23.34ZM130.735 23.24C133.035 23.24 134.515 22.44 135.295 21L133.535 20.02C132.955 21.02 132.015 21.44 130.895 21.44C128.935 21.44 127.915 20.18 127.835 18.18H135.455C135.475 17.94 135.495 17.52 135.495 17.14C135.495 14.06 133.635 12.12 130.635 12.12C127.715 12.12 125.535 14.34 125.535 17.6C125.535 20.98 127.495 23.24 130.735 23.24ZM127.855 16.66C128.015 14.62 129.135 13.74 130.635 13.74C132.215 13.74 133.235 14.76 133.295 16.66H127.855ZM137.677 23H139.977V8.3H137.677V23ZM142.795 23H145.095V8.3H142.795V23ZM152.532 23.24C154.832 23.24 156.312 22.44 157.092 21L155.332 20.02C154.752 21.02 153.812 21.44 152.692 21.44C150.732 21.44 149.712 20.18 149.632 18.18H157.252C157.272 17.94 157.292 17.52 157.292 17.14C157.292 14.06 155.432 12.12 152.432 12.12C149.512 12.12 147.332 14.34 147.332 17.6C147.332 20.98 149.292 23.24 152.532 23.24ZM149.652 16.66C149.812 14.62 150.932 13.74 152.432 13.74C154.012 13.74 155.032 14.76 155.092 16.66H149.652ZM159.474 23H161.774V16.84C161.774 15.26 162.794 14.2 164.274 14.2C164.654 14.2 164.954 14.22 165.174 14.28V12.2C165.014 12.14 164.754 12.12 164.514 12.12C163.154 12.12 162.054 13.04 161.694 14.44H161.594V12.36H159.474V23ZM178.33 23.34C181.33 23.34 183.31 21.96 184.15 19.34L181.89 18.66C181.31 20.46 180.11 21.32 178.29 21.32C175.85 21.32 174.35 19.28 174.35 15.96C174.35 12.64 175.85 10.6 178.29 10.6C180.09 10.6 181.29 11.44 181.87 13.18L184.11 12.42C183.27 9.88 181.29 8.58 178.31 8.58C174.45 8.58 171.83 11.5 171.83 15.96C171.83 20.42 174.47 23.34 178.33 23.34ZM190.735 23.24C193.035 23.24 194.515 22.44 195.295 21L193.535 20.02C192.955 21.02 192.015 21.44 190.895 21.44C188.935 21.44 187.915 20.18 187.835 18.18H195.455C195.475 17.94 195.495 17.52 195.495 17.14C195.495 14.06 193.635 12.12 190.635 12.12C187.715 12.12 185.535 14.34 185.535 17.6C185.535 20.98 187.495 23.24 190.735 23.24ZM187.855 16.66C188.015 14.62 189.135 13.74 190.635 13.74C192.215 13.74 193.235 14.76 193.295 16.66H187.855ZM204.497 16.34V23H206.797V16.04C206.797 13.4 205.397 12.12 203.177 12.12C201.617 12.12 200.437 12.92 199.897 14.22H199.797V12.36H197.677V23H199.977V16.6C199.977 14.98 200.937 13.98 202.397 13.98C203.657 13.98 204.497 14.74 204.497 16.34ZM213.338 23.2C213.898 23.2 214.378 23.12 214.918 22.9V21.18C214.538 21.32 214.198 21.36 213.938 21.36C213.138 21.36 212.678 20.9 212.678 19.92V14H214.918V12.36H212.678V8.94L210.378 10.12V12.36H208.558V14H210.378V20.2C210.378 22.22 211.418 23.2 213.338 23.2ZM221.36 23.24C223.66 23.24 225.14 22.44 225.92 21L224.16 20.02C223.58 21.02 222.64 21.44 221.52 21.44C219.56 21.44 218.54 20.18 218.46 18.18H226.08C226.1 17.94 226.12 17.52 226.12 17.14C226.12 14.06 224.26 12.12 221.26 12.12C218.34 12.12 216.16 14.34 216.16 17.6C216.16 20.98 218.12 23.24 221.36 23.24ZM218.48 16.66C218.64 14.62 219.76 13.74 221.26 13.74C222.84 13.74 223.86 14.76 223.92 16.66H218.48ZM228.302 23H230.602V16.84C230.602 15.26 231.622 14.2 233.102 14.2C233.482 14.2 233.782 14.22 234.002 14.28V12.2C233.842 12.14 233.582 12.12 233.342 12.12C231.982 12.12 230.882 13.04 230.522 14.44H230.422V12.36H228.302V23Z" fill="white"/>
</svg>
