<svg class="error" width="16" height="16" viewBox="0 0 16 16" fill="none" xmlns="http://www.w3.org/2000/svg">
  <path fill-rule="evenodd" clip-rule="evenodd" d="M15.3334 8.00008C15.3334 12.0502 12.0502 15.3334 8.00008 15.3334C3.94999 15.3334 0.666748 12.0502 0.666748 8.00008C0.666748 3.94999 3.94999 0.666748 8.00008 0.666748C12.0502 0.666748 15.3334 3.94999 15.3334 8.00008ZM5.64312 6.58584L7.05727 7.99999L5.643 9.41426C5.38265 9.67461 5.38265 10.0967 5.643 10.3571C5.90335 10.6174 6.32546 10.6174 6.58581 10.3571L8.00008 8.9428L9.41435 10.3571C9.6747 10.6174 10.0968 10.6174 10.3572 10.3571C10.6175 10.0967 10.6175 9.67461 10.3572 9.41426L8.94289 7.99999L10.357 6.58583C10.6174 6.32549 10.6174 5.90338 10.357 5.64303C10.0967 5.38268 9.67459 5.38268 9.41424 5.64303L8.00008 7.05718L6.58593 5.64303C6.32558 5.38268 5.90347 5.38268 5.64312 5.64303C5.38277 5.90338 5.38277 6.32549 5.64312 6.58584Z" fill="#D83E0E"/>
</svg>
