<svg width="200" height="201" viewBox="0 0 200 201" fill="none" xmlns="http://www.w3.org/2000/svg">
<path d="M164 73.1138C164 90.3762 150.006 104.37 132.744 104.37C115.481 104.37 101.487 90.3762 101.487 73.1138C101.487 55.8514 115.481 41.8574 132.744 41.8574C150.006 41.8574 164 55.8514 164 73.1138Z" fill="#D9D9D9" fill-opacity="0.2"/>
<path d="M143.874 151.426C143.874 154.187 146.112 156.426 148.874 156.426C151.635 156.426 153.874 154.187 153.874 151.426C153.874 148.664 151.635 146.426 148.874 146.426C146.112 146.426 143.874 148.664 143.874 151.426Z" fill="#25F4EE"/>
<path d="M60.2202 83.272L46.9632 141.507C44.3614 152.937 53.0504 163.822 64.772 163.817L130.431 163.792C133.884 163.79 136.694 161.217 137.418 157.841C137.827 155.929 138.242 153.958 137.872 152.038C137.549 150.358 137.17 146.711 136.105 144.731C138.109 143.139 140.129 141.372 142.189 139.393C145.119 136.577 145.161 131.97 142.282 129.104C142.037 128.859 141.778 128.636 141.509 128.433C143.626 126.172 145.748 123.693 147.882 120.962C150.378 117.77 149.755 113.203 146.491 110.762C145.475 110.002 144.323 109.538 143.143 109.355L154.542 102.577C158.052 100.49 159.168 96.0136 157.034 92.5797C154.9 89.1458 150.324 88.0544 146.814 90.1419L101.226 117.25C96.8005 119.881 91.7211 121.273 86.5422 121.273L81.0334 121.762C75.671 121.762 71.5188 116.681 72.1737 111.475L73.8285 98.3212C74.8344 90.325 68.4567 83.272 60.2202 83.272Z" fill="#FF949B"/>
<path d="M138.863 43.653C138.863 39.4264 135.436 36 131.21 36L73.9039 36C69.6772 36 66.2509 39.4264 66.2509 43.653L66.2509 156.347C66.2509 160.574 69.6772 164 73.9039 164L131.21 164C135.436 164 138.863 160.574 138.863 156.347L138.863 43.653Z" fill="#5CD6D2"/>
<path d="M114.073 69.3438C112.041 67.9992 110.581 65.8416 110.122 63.3317C110.021 62.7875 109.971 62.2305 109.971 61.6607H103.491L103.478 88.0779C103.371 91.0359 100.974 93.4113 98.0418 93.4113C97.1295 93.4113 96.2738 93.1808 95.5188 92.7774C93.7823 91.849 92.5994 89.9987 92.5994 87.873C92.5994 84.8189 95.0407 82.3283 98.0481 82.3283C98.6081 82.3283 99.1492 82.4244 99.6525 82.5844V75.8553C99.124 75.7848 98.5892 75.7336 98.0481 75.7336C91.4732 75.7336 86.1252 81.1759 86.1252 87.8666C86.1252 91.9707 88.1386 95.6074 91.2153 97.8035C93.1531 99.1864 95.5062 99.9996 98.0481 99.9996C104.623 99.9996 109.971 94.5573 109.971 87.8666V74.4723C112.513 76.3291 115.627 77.4239 118.987 77.4239V70.8292C117.175 70.8292 115.489 70.285 114.073 69.3438Z" fill="white"/>
<path fill-rule="evenodd" clip-rule="evenodd" d="M138.868 94.9092L101.206 117.695C96.7786 120.374 91.6972 121.79 86.5163 121.79H81.0054C75.6409 121.79 71.4871 117.116 72.1422 111.817L73.7976 98.4291C74.539 92.433 71.2712 86.9579 66.2043 84.4907L66.2043 156.346C66.2043 160.573 69.6307 163.999 73.8573 163.999H131.215C135.442 163.999 138.868 160.573 138.868 156.346L138.868 94.9092Z" fill="#223E70"/>
</svg>
